<svg width="22" height="32" viewBox="0 0 22 32" fill="none" xmlns="http://www.w3.org/2000/svg">
<path d="M11.1573 18.8583L6.13072 13.7667C6.04681 13.6817 6 13.5689 6 13.4515C6 13.3341 6.04681 13.2212 6.13072 13.1363L6.1364 13.1308C6.17708 13.0895 6.22605 13.0566 6.28032 13.0341C6.3346 13.0116 6.39304 13 6.45211 13C6.51117 13 6.56961 13.0116 6.62389 13.0341C6.67816 13.0566 6.72713 13.0895 6.76781 13.1308L11.5009 17.9255L16.2322 13.1308C16.2729 13.0895 16.3218 13.0566 16.3761 13.0341C16.4304 13.0116 16.4888 13 16.5479 13C16.607 13 16.6654 13.0116 16.7197 13.0341C16.7739 13.0566 16.8229 13.0895 16.8636 13.1308L16.8693 13.1363C16.9532 13.2212 17 13.3341 17 13.4515C17 13.5689 16.9532 13.6817 16.8693 13.7667L11.8427 18.8583C11.7985 18.9031 11.7453 18.9387 11.6864 18.9631C11.6275 18.9874 11.5641 19 11.5 19C11.4359 19 11.3725 18.9874 11.3136 18.9631C11.2547 18.9387 11.2015 18.9031 11.1573 18.8583Z" fill="#F1630F"/>
<rect y="-6.10352e-05" width="1" height="32" fill="#F1630F"/>
</svg>
