<svg width="16" height="10" viewBox="0 0 16 10" fill="none" xmlns="http://www.w3.org/2000/svg">
<path d="M7.50156 0.21356L0.190145 7.8871C0.0680893 8.01514 0 8.18524 0 8.36214C0 8.53903 0.0680893 8.70913 0.190145 8.83717L0.198407 8.84543C0.257577 8.90772 0.3288 8.95731 0.407743 8.9912C0.486685 9.02509 0.571697 9.04257 0.657608 9.04257C0.743518 9.04257 0.82853 9.02509 0.907472 8.9912C0.986415 8.95731 1.05764 8.90772 1.11681 8.84543L8.00138 1.61939L14.8832 8.84543C14.9424 8.90772 15.0136 8.95731 15.0925 8.9912C15.1715 9.02509 15.2565 9.04257 15.3424 9.04257C15.4283 9.04257 15.5133 9.02509 15.5923 8.9912C15.6712 8.95731 15.7424 8.90772 15.8016 8.84543L15.8099 8.83717C15.9319 8.70913 16 8.53903 16 8.36214C16 8.18524 15.9319 8.01514 15.8099 7.8871L8.49844 0.21356C8.43415 0.146074 8.35681 0.0923481 8.27113 0.0556385C8.18545 0.018929 8.09321 0 8 0C7.90679 0 7.81455 0.018929 7.72887 0.0556385C7.64319 0.0923481 7.56585 0.146074 7.50156 0.21356Z" fill="#BBBBBB"/>
</svg>
