<svg width="17" height="12" viewBox="0 0 17 12" fill="none" xmlns="http://www.w3.org/2000/svg">
<path d="M0 0.790314H17V11.2097H0V0.790314Z" fill="#5C9E31"/>
<path d="M14.8128 6.00629L8.46327 10.0177L2.18726 6.07977L8.53675 2.06832L14.8128 6.00629Z" fill="#FCEA2B"/>
<path d="M8.49997 8.46776C9.86287 8.46776 10.9677 7.36291 10.9677 6.00001C10.9677 4.63712 9.86287 3.53227 8.49997 3.53227C7.13707 3.53227 6.03223 4.63712 6.03223 6.00001C6.03223 7.36291 7.13707 8.46776 8.49997 8.46776Z" fill="#1E50A0"/>
<path d="M10.7371 7.03703C10.8275 6.83971 10.8917 6.63137 10.9279 6.41735C10.724 5.99108 10.4267 5.61622 10.0581 5.32061C9.68942 5.025 9.25893 4.81624 8.79855 4.70981C8.33816 4.60339 7.85972 4.60205 7.39875 4.70589C6.93777 4.80972 6.50611 5.01607 6.13582 5.3096C6.08276 5.48932 6.05038 5.6745 6.03931 5.86156C6.40319 5.56306 6.83188 5.35388 7.2911 5.25075C7.75031 5.14762 8.22728 5.15341 8.68385 5.26766C9.14043 5.3819 9.56392 5.60142 9.92045 5.90866C10.277 6.21591 10.5566 6.60233 10.7371 7.03703Z" fill="white"/>
</svg>
