<svg width="13" height="8" viewBox="0 0 13 8" fill="none" xmlns="http://www.w3.org/2000/svg">
<path d="M8.30167 4.01687L11.3994 1.32553V6.67749L8.30167 4.01687ZM4.30998 4.47265L5.3978 5.41693C5.56852 5.56198 5.79112 5.64961 6.03437 5.64961H6.04293H6.04243H6.04948C6.29323 5.64961 6.51583 5.56147 6.68857 5.41542L6.68706 5.41643L7.77488 4.47214L11.0816 7.31205H1.00472L4.30998 4.47265ZM1.00019 0.687441H11.0877L6.24237 4.89569C6.18789 4.93878 6.12045 4.9622 6.05099 4.96216H6.04394H6.04444H6.03739C5.96769 4.96225 5.90002 4.93863 5.84552 4.89518L5.84602 4.89569L1.00019 0.687441ZM0.687441 1.32502L3.7847 4.01637L0.687441 6.67548V1.32502ZM11.5656 0.0956878C11.4448 0.0352534 11.3027 0 11.1522 0H0.936229C0.79026 3.48681e-05 0.646298 0.0339997 0.515707 0.0992131L0.521246 0.0966949C0.36491 0.173805 0.23325 0.293096 0.141142 0.441093C0.0490327 0.58909 0.000144714 0.759896 0 0.934215L0 7.06427C0.000266618 7.31236 0.0989373 7.55021 0.274362 7.72564C0.449787 7.90106 0.687638 7.99973 0.935726 8H11.1506C11.3987 7.99973 11.6366 7.90106 11.812 7.72564C11.9874 7.55021 12.0861 7.31236 12.0864 7.06427V0.934215C12.0864 0.568083 11.8754 0.250803 11.5681 0.0982059L11.5626 0.0956878H11.5656Z" fill="#BBBBBB"/>
</svg>
