<svg width="14" height="14" viewBox="0 0 14 14" fill="none" xmlns="http://www.w3.org/2000/svg">
<path fill-rule="evenodd" clip-rule="evenodd" d="M4.04063 0.04125C4.77375 0.00749999 5.0075 0 6.875 0C8.7425 0 8.97625 0.00812499 9.70875 0.04125C10.4413 0.074375 10.9412 0.19125 11.3787 0.360625C11.8369 0.53375 12.2525 0.804375 12.5962 1.15437C12.9462 1.4975 13.2163 1.9125 13.3888 2.37125C13.5588 2.80875 13.675 3.30875 13.7088 4.04C13.7425 4.77438 13.75 5.00813 13.75 6.875C13.75 8.7425 13.7419 8.97625 13.7088 9.70937C13.6756 10.4406 13.5588 10.9406 13.3888 11.3781C13.2162 11.8369 12.9458 12.2526 12.5962 12.5962C12.2525 12.9462 11.8369 13.2163 11.3787 13.3888C10.9412 13.5588 10.4412 13.675 9.71 13.7088C8.97625 13.7425 8.7425 13.75 6.875 13.75C5.0075 13.75 4.77375 13.7419 4.04063 13.7088C3.30938 13.6756 2.80938 13.5588 2.37188 13.3888C1.91308 13.2162 1.49739 12.9458 1.15375 12.5962C0.803987 12.2529 0.533322 11.8374 0.360625 11.3787C0.19125 10.9412 0.075 10.4412 0.04125 9.71C0.00749999 8.97562 0 8.74187 0 6.875C0 5.0075 0.00812499 4.77375 0.04125 4.04125C0.074375 3.30875 0.19125 2.80875 0.360625 2.37125C0.533577 1.91255 0.804449 1.49707 1.15437 1.15375C1.49753 0.804063 1.9128 0.533402 2.37125 0.360625C2.80875 0.19125 3.30875 0.075 4.04 0.04125H4.04063ZM9.65312 1.27875C8.92812 1.24563 8.71063 1.23875 6.875 1.23875C5.03937 1.23875 4.82187 1.24563 4.09687 1.27875C3.42625 1.30938 3.0625 1.42125 2.82 1.51562C2.49938 1.64062 2.27 1.78875 2.02938 2.02938C1.80128 2.25128 1.62574 2.52143 1.51562 2.82C1.42125 3.0625 1.30938 3.42625 1.27875 4.09687C1.24563 4.82187 1.23875 5.03937 1.23875 6.875C1.23875 8.71063 1.24563 8.92812 1.27875 9.65312C1.30938 10.3237 1.42125 10.6875 1.51562 10.93C1.62562 11.2281 1.80125 11.4988 2.02938 11.7206C2.25125 11.9488 2.52188 12.1244 2.82 12.2344C3.0625 12.3288 3.42625 12.4406 4.09687 12.4713C4.82187 12.5044 5.03875 12.5112 6.875 12.5112C8.71125 12.5112 8.92812 12.5044 9.65312 12.4713C10.3237 12.4406 10.6875 12.3288 10.93 12.2344C11.2506 12.1094 11.48 11.9613 11.7206 11.7206C11.9488 11.4988 12.1244 11.2281 12.2344 10.93C12.3288 10.6875 12.4406 10.3237 12.4713 9.65312C12.5044 8.92812 12.5112 8.71063 12.5112 6.875C12.5112 5.03937 12.5044 4.82187 12.4713 4.09687C12.4406 3.42625 12.3288 3.0625 12.2344 2.82C12.1094 2.49938 11.9613 2.27 11.7206 2.02938C11.4987 1.80129 11.2286 1.62576 10.93 1.51562C10.6875 1.42125 10.3237 1.30938 9.65312 1.27875V1.27875ZM5.99688 8.99437C6.48729 9.19852 7.03336 9.22607 7.54183 9.07233C8.0503 8.91858 8.48962 8.59307 8.78476 8.1514C9.07989 7.70973 9.21253 7.17929 9.16003 6.65069C9.10752 6.12209 8.87313 5.62811 8.49688 5.25312C8.25702 5.01342 7.96701 4.82988 7.64771 4.71572C7.32841 4.60155 6.98777 4.5596 6.65031 4.59288C6.31285 4.62617 5.98697 4.73386 5.69613 4.90821C5.40528 5.08255 5.15671 5.31922 4.96831 5.60116C4.77991 5.8831 4.65637 6.20331 4.60657 6.53873C4.55678 6.87415 4.58197 7.21643 4.68034 7.54095C4.77871 7.86546 4.9478 8.16413 5.17545 8.41545C5.4031 8.66677 5.68364 8.86449 5.99688 8.99437ZM4.37625 4.37625C4.70439 4.04811 5.09395 3.78781 5.52269 3.61023C5.95142 3.43264 6.41094 3.34123 6.875 3.34123C7.33906 3.34123 7.79858 3.43264 8.22731 3.61023C8.65605 3.78781 9.04561 4.04811 9.37375 4.37625C9.70189 4.70439 9.96219 5.09395 10.1398 5.52269C10.3174 5.95142 10.4088 6.41094 10.4088 6.875C10.4088 7.33906 10.3174 7.79858 10.1398 8.22731C9.96219 8.65605 9.70189 9.04561 9.37375 9.37375C8.71104 10.0365 7.81221 10.4088 6.875 10.4088C5.93779 10.4088 5.03896 10.0365 4.37625 9.37375C3.71354 8.71104 3.34123 7.81221 3.34123 6.875C3.34123 5.93779 3.71354 5.03896 4.37625 4.37625V4.37625ZM11.1925 3.8675C11.2738 3.79079 11.3389 3.69855 11.3839 3.59623C11.429 3.49392 11.453 3.38361 11.4546 3.27183C11.4563 3.16006 11.4355 3.04909 11.3934 2.94551C11.3514 2.84192 11.289 2.74782 11.21 2.66877C11.1309 2.58973 11.0368 2.52735 10.9332 2.48532C10.8297 2.4433 10.7187 2.42248 10.6069 2.42411C10.4951 2.42574 10.3848 2.44978 10.2825 2.49481C10.1802 2.53984 10.088 2.60493 10.0112 2.68625C9.86207 2.84439 9.78039 3.05445 9.78356 3.27183C9.78673 3.48921 9.8745 3.6968 10.0282 3.85053C10.182 4.00425 10.3895 4.09202 10.6069 4.09519C10.8243 4.09836 11.0344 4.01668 11.1925 3.8675V3.8675Z" fill="#BBBBBB"/>
</svg>
