<svg width="14" height="13" viewBox="0 0 14 13" fill="none" xmlns="http://www.w3.org/2000/svg">
<path fill-rule="evenodd" clip-rule="evenodd" d="M5.2003 4.52985H7.8001V5.73235C8.1746 5.04075 9.135 4.41935 10.5777 4.41935C13.3434 4.41935 14 5.79605 14 8.32195V13H11.2V8.8972C11.2 7.45875 10.8255 6.64755 9.8721 6.64755C8.5498 6.64755 8.0003 7.5218 8.0003 8.89655V13H5.2003V4.52985V4.52985ZM0.399 12.8895H3.199V4.41935H0.399V12.8895V12.8895ZM3.6001 1.6575C3.6002 1.87543 3.55366 2.0912 3.46317 2.29228C3.37268 2.49336 3.24006 2.67573 3.073 2.8288C2.73448 3.14121 2.27627 3.31607 1.799 3.315C1.32257 3.3147 0.865418 3.14028 0.5264 2.82945C0.359948 2.67586 0.22777 2.49329 0.137441 2.29218C0.047111 2.09108 0.000405392 1.8754 0 1.6575C0 1.21745 0.189 0.79625 0.5271 0.48555C0.86582 0.174303 1.32317 -0.000194487 1.7997 1.62672e-07C2.2771 1.62672e-07 2.7349 0.17485 3.073 0.48555C3.4104 0.79625 3.6001 1.21745 3.6001 1.6575Z" fill="#BBBBBB"/>
</svg>
