<svg width="10" height="10" viewBox="0 0 10 10" fill="none" xmlns="http://www.w3.org/2000/svg">
<path d="M0.62688 9.99999C5.95875 10.0075 10.0056 5.91249 9.99999 0.626874C9.99999 0.28125 9.71999 0 9.37499 0H7.725C7.41562 0 7.1525 0.2275 7.10687 0.53375C6.99806 1.26816 6.78442 1.98315 6.4725 2.65687L6.40812 2.79562C6.36488 2.88899 6.35558 2.99452 6.38182 3.09402C6.40806 3.19351 6.46821 3.28073 6.55187 3.34062C7.06312 3.70562 7.25812 4.44 6.86 5.0125C6.35876 5.73332 5.73316 6.35913 5.0125 6.86062C4.43938 7.25812 3.705 7.06312 3.34063 6.55249C3.28079 6.46857 3.19351 6.40821 3.09387 6.38184C2.99423 6.35548 2.88851 6.36477 2.795 6.40812L2.65688 6.47187C1.98313 6.78437 1.26813 6.99812 0.533755 7.10687C0.227506 7.15249 5.72205e-06 7.41562 5.72205e-06 7.72562V9.37499C5.72205e-06 9.45712 0.0161924 9.53844 0.0476398 9.61431C0.0790882 9.69018 0.125182 9.75911 0.183285 9.81715C0.241387 9.8752 0.310361 9.92122 0.386261 9.95259C0.462162 9.98397 0.543501 10.0001 0.625629 9.99999H0.62688Z" fill="#BBBBBB"/>
</svg>
