<svg width="15" height="12" viewBox="0 0 15 12" fill="none" xmlns="http://www.w3.org/2000/svg">
<path d="M14.1912 1.36845C13.6694 1.5997 13.1088 1.75595 12.5194 1.82657C13.1275 1.46269 13.5825 0.88999 13.7994 0.215324C13.228 0.554692 12.6027 0.793571 11.9506 0.921574C11.5121 0.453365 10.9313 0.143028 10.2983 0.0387452C9.66537 -0.0655374 9.01569 0.0420687 8.45015 0.344857C7.88461 0.647645 7.43486 1.12868 7.17072 1.71326C6.90658 2.29785 6.84283 2.95329 6.98937 3.57782C5.83168 3.5197 4.69914 3.21879 3.66527 2.69464C2.63139 2.17049 1.71928 1.4348 0.988125 0.535324C0.738125 0.966574 0.594375 1.46657 0.594375 1.99907C0.594096 2.47845 0.712145 2.95048 0.938049 3.37328C1.16395 3.79609 1.49073 4.1566 1.88938 4.42282C1.42705 4.40811 0.974921 4.28319 0.570625 4.05845V4.09595C0.570578 4.76829 0.803145 5.41994 1.22886 5.94032C1.65458 6.46071 2.24723 6.81778 2.90625 6.95095C2.47736 7.06702 2.02771 7.08412 1.59125 7.00095C1.77719 7.57946 2.13937 8.08534 2.6271 8.44778C3.11484 8.81021 3.7037 9.01106 4.31125 9.0222C3.2799 9.83183 2.00618 10.271 0.695 10.2691C0.462738 10.2691 0.230673 10.2556 0 10.2284C1.33092 11.0842 2.88021 11.5383 4.4625 11.5366C9.81875 11.5366 12.7469 7.10032 12.7469 3.25282C12.7469 3.12782 12.7438 3.00157 12.7381 2.87657C13.3077 2.46468 13.7993 1.95463 14.19 1.37032L14.1912 1.36845V1.36845Z" fill="#BBBBBB"/>
</svg>
